<svg width="209" height="68" viewBox="0 0 209 68" fill="none" xmlns="http://www.w3.org/2000/svg">
<path fill-rule="evenodd" clip-rule="evenodd" d="M34.1262 0.0378071H0.666687V67.1131H67.7416V0.0378071H34.2042C34.1782 0.0378071 34.1522 0.0377479 34.1262 0.0378071ZM1.92441 42.7052V65.8553H25.0745C13.8918 62.6989 5.08094 53.888 1.92441 42.7052ZM34.2042 65.8553H36.0015L8.12388 14.5504C4.22549 19.8855 1.92444 26.4616 1.92444 33.5752C1.92444 51.4032 16.3765 65.8553 34.2042 65.8553ZM7.46227 13.3328C4.97241 16.617 3.07365 20.374 1.92441 24.4454V3.14113L7.46227 13.3328ZM36.4299 64.0095L8.9603 13.4554C14.2605 6.81409 22.1268 2.31074 31.0578 1.44682L36.4299 11.3334V64.0095ZM36.4299 8.69912L32.4329 1.34321C32.9942 1.31286 33.5592 1.29685 34.1277 1.29553H36.4299V8.69912ZM37.6876 13.6481V38.2H51.0284L37.6876 13.6481ZM37.6876 39.4577V64.0094L51.0284 39.4577H37.6876ZM37.6876 11.0138V1.29553H66.4839V11.014L52.0858 37.5116L37.6876 11.0138ZM66.4839 64.0094L53.1432 39.4577H66.4839V64.0094ZM66.4839 13.6482V38.2H53.1432L66.4839 13.6482ZM25.074 1.29553C18.4136 3.17565 12.5947 7.0616 8.31062 12.2598L2.35297 1.29553H25.074ZM38.116 65.8553L52.0858 40.1459L66.0555 65.8553H38.116Z" fill="black"/>
<path fill-rule="evenodd" clip-rule="evenodd" d="M96.1521 6.49629V12.1435C96.1521 15.6729 98.8845 17.5174 102.255 17.5174C105.648 17.5174 108.289 15.3088 108.289 11.6882V6.17714C108.289 2.67061 105.648 0.666748 102.21 0.666748C98.8165 0.666748 96.1521 2.87562 96.1521 6.49629ZM106.855 6.15482V11.8246C106.855 14.6029 104.85 16.2424 102.255 16.2424C99.4765 16.2424 97.5865 14.58 97.5865 11.9158V6.51893C97.5865 3.7183 99.4992 1.96472 102.141 1.96472C104.988 1.96472 106.855 3.53593 106.855 6.15482Z" fill="black"/>
<path d="M77.545 0.985506H76.0647L80.2545 17.3126H81.666L85.2187 3.21733H85.2643L88.8161 17.3126H90.1829L94.4183 0.985506H92.9839L89.5223 15.0811H89.4767L85.9243 0.985506H84.6037L80.9833 15.0811H80.9604L77.545 0.985506Z" fill="black"/>
<path fill-rule="evenodd" clip-rule="evenodd" d="M111.206 12.1435V6.49629C111.206 2.87562 113.871 0.666748 117.264 0.666748C120.701 0.666748 123.343 2.67061 123.343 6.17714V11.6882C123.343 15.3088 120.701 17.5174 117.309 17.5174C113.938 17.5174 111.206 15.6729 111.206 12.1435ZM121.909 11.8246V6.15482C121.909 3.53593 120.042 1.96472 117.195 1.96472C114.553 1.96472 112.641 3.7183 112.641 6.51893V11.9158C112.641 14.58 114.531 16.2424 117.309 16.2424C119.905 16.2424 121.909 14.6029 121.909 11.8246Z" fill="black"/>
<path fill-rule="evenodd" clip-rule="evenodd" d="M132.591 0.985542H126.647V17.2215H132.591C135.779 17.2215 138.238 15.1947 138.238 11.779V6.29124C138.238 2.87558 135.87 0.985542 132.591 0.985542ZM136.803 11.8702C136.803 14.1473 135.255 15.9461 132.5 15.9461H128.082V2.26087H132.454C135.3 2.26087 136.803 3.99118 136.803 6.33683V11.8702Z" fill="black"/>
<path d="M140.563 13.6693L141.884 13.191C142.544 15.1037 144.23 16.2423 146.575 16.2423C148.875 16.2423 150.651 15.0355 150.651 13.0543C150.651 11.1416 149.558 10.3901 148.055 9.91185L144.867 8.9783C142.567 8.29505 141.383 7.04267 141.383 4.90234C141.383 2.35168 143.569 0.689288 146.438 0.689288C148.875 0.689288 150.856 1.57724 151.721 3.64965L150.492 4.15085C149.74 2.73906 148.396 1.91902 146.461 1.91902C144.662 1.91902 142.818 2.82993 142.818 4.76556C142.818 6.10913 143.478 7.11122 145.618 7.74857L148.806 8.68211C150.719 9.22859 152.063 10.4127 152.063 12.8952C152.063 15.6049 149.899 17.495 146.484 17.495C143.523 17.495 141.269 16.1285 140.563 13.6693Z" fill="black"/>
<path d="M153.226 2.23802H158.714V17.2216H160.149V2.23802H165.614V0.985639H153.226V2.23802Z" fill="black"/>
<path fill-rule="evenodd" clip-rule="evenodd" d="M167.278 12.1435V6.49629C167.278 2.87562 169.943 0.666748 173.336 0.666748C176.774 0.666748 179.415 2.67061 179.415 6.17714V11.6882C179.415 15.3088 176.774 17.5174 173.381 17.5174C170.011 17.5174 167.278 15.6729 167.278 12.1435ZM177.981 11.8246V6.15482C177.981 3.53593 176.114 1.96472 173.268 1.96472C170.626 1.96472 168.713 3.7183 168.713 6.51893V11.9158C168.713 14.58 170.603 16.2424 173.381 16.2424C175.977 16.2424 177.981 14.6029 177.981 11.8246Z" fill="black"/>
<path d="M182.333 6.3369V12.1435C182.333 15.673 184.997 17.5174 188.435 17.5174C191.715 17.5174 194.06 15.7186 194.06 12.8264V12.1891H192.671V12.5761C192.671 14.785 191.1 16.2424 188.435 16.2424C185.657 16.2424 183.767 14.5574 183.767 11.9158V6.35954C183.767 3.69537 185.68 1.96475 188.322 1.96475C191.008 1.96475 192.671 3.39918 192.671 5.60805V6.29131H194.06V5.38041C194.06 2.6021 191.669 0.666777 188.39 0.666777C184.86 0.666777 182.333 3.0118 182.333 6.3369Z" fill="black"/>
<path d="M197.113 0.962775H198.547V9.79827L206.859 0.962775H208.613L202.578 7.36175L209 17.2213H207.315L201.622 8.4088L198.547 11.5512V17.2213H197.113V0.962775Z" fill="black"/>
<path d="M76.8843 30.82V36.6265C76.8843 40.1563 79.5487 42.0005 82.9867 42.0005C86.2662 42.0005 88.6116 40.2019 88.6116 37.3098V36.6721H87.2227V37.0595C87.2227 39.2684 85.6512 40.7258 82.9867 40.7258C80.2087 40.7258 78.3187 39.0404 78.3187 36.3992V30.8426C78.3187 28.1787 80.2317 26.4478 82.8732 26.4478C85.56 26.4478 87.2227 27.8822 87.2227 30.0914V30.7744H88.6116V29.8635C88.6116 27.0855 86.2206 25.1498 82.9418 25.1498C79.412 25.1498 76.8843 27.4952 76.8843 30.82Z" fill="black"/>
<path fill-rule="evenodd" clip-rule="evenodd" d="M96.6063 25.4236H97.9725L103.939 41.7048H102.436L100.614 36.5814H93.8283L91.9612 41.7048H90.5265L96.6063 25.4236ZM100.204 35.3743L97.2669 27.1312H97.244L94.238 35.3743H100.204Z" fill="black"/>
<path fill-rule="evenodd" clip-rule="evenodd" d="M112.071 25.4687H106.514V41.7049H107.949V35.1692H111.751C115.236 35.1692 117.217 33.0747 117.217 30.2738C117.217 27.427 115.236 25.4687 112.071 25.4687ZM115.782 30.2738C115.782 32.7327 114.097 33.9398 111.387 33.9398H107.949V26.6984H111.911C114.188 26.6984 115.782 28.0876 115.782 30.2738Z" fill="black"/>
<path d="M119.747 25.4685H128.308V26.7668H124.734V40.4071H128.308V41.7048H119.747V40.4071H123.3V26.7668H119.747V25.4685Z" fill="black"/>
<path d="M130.383 26.7214H135.871V41.7049H137.305V26.7214H142.77V25.4687H130.383V26.7214Z" fill="black"/>
<path fill-rule="evenodd" clip-rule="evenodd" d="M147.964 25.4236H149.33L155.296 41.7048H153.793L151.972 36.5814H145.186L143.319 41.7048H141.884L147.964 25.4236ZM151.562 35.3743L148.625 27.1312H148.602L145.596 35.3743H151.562Z" fill="black"/>
<path d="M159.307 25.4458H157.872V41.7047H167.869V40.4297H159.307V25.4458Z" fill="black"/>
<path d="M77.2713 49.9519H78.7058V57.1483H87.5183V49.9519H88.9531V66.1882H87.5183V58.4004H78.7058V66.1882H77.2713V49.9519Z" fill="black"/>
<path fill-rule="evenodd" clip-rule="evenodd" d="M92.2803 55.4628V61.11C92.2803 64.6395 95.0127 66.4839 98.3828 66.4839C101.776 66.4839 104.417 64.2754 104.417 60.6544V55.1443C104.417 51.6375 101.776 49.6336 98.3378 49.6336C94.9448 49.6336 92.2803 51.8425 92.2803 55.4628ZM102.983 55.1213V60.7912C102.983 63.5692 100.979 65.2092 98.3828 65.2092C95.6048 65.2092 93.7148 63.5465 93.7148 60.8823V55.4858C93.7148 52.6848 95.6277 50.9313 98.2693 50.9313C101.116 50.9313 102.983 52.5025 102.983 55.1213Z" fill="black"/>
<path d="M107.721 49.9292H109.156V64.9131H117.718V66.1881H107.721V49.9292Z" fill="black"/>
<path fill-rule="evenodd" clip-rule="evenodd" d="M126.305 49.9519H120.361V66.1882H126.305C129.493 66.1882 131.952 64.1614 131.952 60.7457V55.2576C131.952 51.8426 129.584 49.9519 126.305 49.9519ZM130.517 60.8369C130.517 63.1137 128.969 64.9131 126.213 64.9131H121.796V51.2276H126.168C129.014 51.2276 130.517 52.9579 130.517 55.3035V60.8369Z" fill="black"/>
<path d="M134.915 49.9519H143.477V51.2502H139.902V64.8905H143.477V66.1882H134.915V64.8905H138.467V51.2502H134.915V49.9519Z" fill="black"/>
<path d="M148.306 49.9292H146.826V66.1881H148.169V52.2292H148.215L157.119 66.1881H158.531V49.9292H157.165V63.6833H157.119L148.306 49.9292Z" fill="black"/>
<path d="M161.904 61.1099V55.3033C161.904 51.9788 164.431 49.6335 167.938 49.6335C171.217 49.6335 173.608 51.5003 173.608 54.2789V55.1672H172.242V54.5065C172.242 52.298 170.58 50.9312 167.87 50.9312C165.251 50.9312 163.338 52.6621 163.338 55.326V60.8823C163.338 63.5238 165.228 65.2091 167.984 65.2091C170.671 65.2091 172.333 63.7973 172.333 61.5882V59.2884H167.779V57.9904H173.7V61.7935C173.7 64.6853 171.422 66.4841 167.984 66.4841C164.568 66.4841 161.904 64.6397 161.904 61.1099Z" fill="black"/>
<path d="M177.481 62.1574L176.161 62.6357C176.867 65.0948 179.121 66.4613 182.081 66.4613C185.497 66.4613 187.66 64.571 187.66 61.8615C187.66 59.3797 186.317 58.1953 184.404 57.6491L181.216 56.7156C179.075 56.0779 178.415 55.0758 178.415 53.7326C178.415 51.7966 180.26 50.886 182.058 50.886C183.994 50.886 185.338 51.7054 186.089 53.1175L187.318 52.6167C186.453 50.5442 184.472 49.6563 182.036 49.6563C179.167 49.6563 176.981 51.3187 176.981 53.8687C176.981 56.0094 178.164 57.2614 180.465 57.945L183.653 58.8785C185.155 59.3568 186.248 60.1086 186.248 62.0213C186.248 64.0019 184.472 65.2093 182.172 65.2093C179.827 65.2093 178.142 64.0701 177.481 62.1574Z" fill="black"/>
</svg>
